<svg width="15" height="16" viewBox="0 0 15 16" fill="none" xmlns="http://www.w3.org/2000/svg">
<path d="M11.4469 12.7908L11.9359 12.2799C14.1981 12.3577 14.2329 12.2742 14.3323 12.0297L14.9538 10.4382L15 10.2873L14.9495 10.1553C14.9229 10.0856 14.8408 9.87763 13.4283 8.46103V7.71588C15.0581 6.06442 15.0234 5.97985 14.9305 5.73813L14.3117 4.13011C14.2188 3.88896 14.1834 3.79467 11.9375 3.85925L11.4486 3.32781C11.499 2.545 11.4734 1.75881 11.372 0.981489L11.3089 0.831201L9.69323 0.0883324C9.45527 -0.0259551 9.3716 -0.0670986 7.84607 1.68036L7.16045 1.6695C5.58982 -0.0939561 5.51539 -0.0619557 5.28015 0.0380458L3.77798 0.676913C3.54274 0.776914 3.45962 0.812343 3.55089 3.21238L3.06574 3.72096C0.8046 3.64324 0.76983 3.72782 0.671496 3.97125L0.0488954 5.56327L0 5.71585L0.0510685 5.84842C0.0776893 5.91699 0.156465 6.12271 1.57226 7.54102V8.28389C-0.0575877 9.93534 -0.0222745 10.0199 0.0711699 10.2622L0.689424 11.8719C0.783955 12.1182 0.817639 12.2057 3.06302 12.1439L3.55197 12.6782C3.50129 13.4598 3.52623 14.2448 3.6264 15.0211L3.68942 15.1726L5.31547 15.92C5.55179 16.024 5.63383 16.0611 7.15502 14.32L7.84064 14.3291C9.41344 16.0949 9.49384 16.0606 9.72365 15.9629L11.2226 15.3257C11.4594 15.2268 11.542 15.192 11.4469 12.7908ZM5.00471 9.06276C4.81513 8.54163 4.7761 7.97323 4.89251 7.42886C5.00892 6.8845 5.27559 6.38842 5.65905 6.00287C6.04251 5.61732 6.52569 5.35948 7.04795 5.26169C7.57022 5.16391 8.10831 5.23054 8.5947 5.45322C9.0811 5.6759 9.49414 6.04472 9.78199 6.5134C10.0698 6.98207 10.2197 7.52973 10.2127 8.08765C10.2058 8.64557 10.0423 9.1889 9.74286 9.64946C9.44341 10.11 9.02131 10.4673 8.52952 10.6765C7.85853 10.9525 7.11091 10.9376 6.45031 10.6352C5.7897 10.3327 5.26991 9.76736 5.00471 9.06276Z" fill="#1D7052"/>
</svg>
