<svg width="250" height="267" viewBox="0 0 250 267" fill="none" xmlns="http://www.w3.org/2000/svg">
<path d="M125.67 266.033L99.4041 220.538L151.937 220.538L125.67 266.033Z" fill="#2FC18C"/>
<g filter="url(#filter0_di_9_298)">
<ellipse cx="125" cy="122.599" rx="115" ry="115.632" fill="#3C1B7A"/>
<path d="M125 241.231C190.185 241.231 243 188.102 243 122.599C243 57.0959 190.185 3.96704 125 3.96704C59.8149 3.96704 7 57.0959 7 122.599C7 188.102 59.8149 241.231 125 241.231Z" stroke="#2FC18C" stroke-width="6"/>
</g>
<path d="M118.374 101.663L133.738 101.733L133.67 116.633L118.307 116.563L118.374 101.663ZM99.7253 64.4569C100.182 54.6631 103.634 47.7357 110.08 43.6748C114.148 41.0811 119.137 39.7977 125.049 39.8246C132.817 39.86 139.253 41.7454 144.358 45.4808C149.496 49.2164 152.049 54.7275 152.016 62.0141C151.996 66.4824 150.861 70.2409 148.613 73.2898C147.299 75.1399 144.779 77.5 141.054 80.3703L137.38 83.1892C135.38 84.7269 134.048 86.5253 133.386 88.5846C132.967 89.8888 132.735 91.9157 132.688 94.6652L118.767 94.6018C119 88.794 119.568 84.7923 120.472 82.5966C121.376 80.3666 123.69 77.8164 127.416 74.9462L131.193 72.0246C132.434 71.1022 133.436 70.0928 134.197 68.9964C135.58 67.1122 136.277 65.0359 136.287 62.7674C136.299 60.1552 135.537 57.7801 134 55.642C132.497 53.4698 129.718 52.3744 125.662 52.3559C121.675 52.3378 118.834 53.6481 117.138 56.287C115.476 58.9261 114.638 61.672 114.625 64.5248L99.7253 64.4569Z" fill="#2FC18C"/>
<path d="M161.096 108.046L170.718 113.659L165.282 122.976L155.661 117.363L161.096 108.046ZM162.854 77.9592C166.686 71.9847 171.361 68.8929 176.878 68.6837C180.371 68.5321 183.969 69.5364 187.671 71.6964C192.535 74.5345 195.894 78.0497 197.747 82.242C199.621 86.4468 199.23 90.8274 196.571 95.3836C194.941 98.1776 192.868 100.123 190.353 101.219C188.858 101.903 186.422 102.469 183.044 102.918L179.717 103.354C177.904 103.592 176.417 104.237 175.256 105.288C174.521 105.954 173.641 107.14 172.617 108.847L163.899 103.761C166.148 100.204 167.953 97.9016 169.315 96.8526C170.69 95.7822 173.066 95.0224 176.444 94.5734L179.873 94.1109C180.986 93.9827 181.981 93.7129 182.855 93.3014C184.406 92.6217 185.595 91.5726 186.423 90.1541C187.376 88.5207 187.757 86.7552 187.566 84.8576C187.408 82.9511 186.06 81.2569 183.52 79.775C181.023 78.3183 178.765 78.1097 176.744 79.1492C174.746 80.2013 173.226 81.6193 172.185 83.4031L162.854 77.9592Z" fill="#EA5D5D"/>
<path d="M77.3708 113.865L88.1435 111.031L90.8877 121.463L80.115 124.297L77.3708 113.865ZM57.3392 91.3475C55.8243 84.4133 56.9435 78.9215 60.6969 74.8723C63.0596 72.2953 66.3135 70.4616 70.4587 69.371C75.9053 67.9381 80.7659 68.0488 85.0405 69.703C89.3392 71.3509 92.1595 74.7255 93.5016 79.8271C94.3245 82.9554 94.2344 85.7964 93.2313 88.3502C92.6574 89.8906 91.3349 92.0138 89.2638 94.7199L87.2194 97.3804C86.1065 98.831 85.511 100.338 85.4329 101.903C85.3843 102.893 85.6011 104.354 86.0834 106.286L76.3229 108.853C75.3977 104.749 75.0458 101.844 75.2673 100.139C75.4824 98.4099 76.6255 96.1923 78.6965 93.4862L80.7942 90.7345C81.4909 89.8565 82.0031 88.9628 82.3307 88.0532C82.9465 86.4761 83.0456 84.8935 82.6278 83.3053C82.1466 81.4764 81.1676 79.9587 79.6906 78.752C78.2314 77.515 76.0799 77.2705 73.2361 78.0187C70.4405 78.7541 68.696 80.2036 68.0025 82.3672C67.3331 84.5245 67.2612 86.6017 67.7866 88.599L57.3392 91.3475Z" fill="#F9BA18"/>
<path d="M62.5948 144.163H50.4297L51.5434 141.393V182H46.6888V141.393L48.0595 144.163H35.6659V139.879H62.5948V144.163ZM73.7207 182V139.879H88.3417C92.2063 139.879 95.1476 140.793 97.1656 142.62C99.1836 144.448 100.193 147.237 100.193 150.988C100.193 153.234 99.7643 155.147 98.9076 156.727C98.0699 158.289 97.0514 159.497 95.852 160.354C94.6717 161.211 93.577 161.696 92.568 161.811C93.5961 161.887 94.6051 162.172 95.595 162.667C96.604 163.143 97.4417 163.886 98.108 164.895C98.7743 165.904 99.1075 167.255 99.1075 168.95C99.1075 170.511 99.1075 172.11 99.1075 173.747C99.1075 175.365 99.1075 176.965 99.1075 178.545C99.1075 179.363 99.1741 180.096 99.3074 180.744C99.4406 181.372 99.5929 181.791 99.7643 182H94.8526C94.7193 181.753 94.586 181.324 94.4528 180.715C94.3195 180.106 94.2529 179.382 94.2529 178.545C94.2529 177.079 94.2529 175.584 94.2529 174.061C94.2529 172.538 94.2529 171.034 94.2529 169.549C94.2529 167.684 93.6627 166.294 92.4824 165.38C91.302 164.466 89.6362 164.009 87.485 164.009H77.1189L78.4896 162.153V182H73.7207ZM78.4896 161.753L77.1189 159.726H87.5421C88.9509 159.726 90.2264 159.383 91.3686 158.698C92.5299 157.993 93.4533 157.023 94.1386 155.785C94.843 154.529 95.1952 153.063 95.1952 151.387C95.1952 148.779 94.5099 146.923 93.1392 145.819C91.7684 144.715 89.7885 144.163 87.1994 144.163H77.0047L78.4896 142.049V161.753ZM112.742 182V139.879H117.539V182H112.742ZM139.765 182.228L128.314 139.879H133.654L143.478 178.402H143.135L152.844 139.879H158.213L146.876 182.228H139.765ZM168.967 182V139.879H173.765V182H168.967ZM184.651 182L196.245 139.765H203.841L215.349 182H210.323L200.014 142.935H200.071L189.677 182H184.651ZM190.648 170.834V166.551H209.438V170.834H190.648Z" fill="white"/>
<defs>
<filter id="filter0_di_9_298" x="0" y="0.967041" width="250" height="251.264" filterUnits="userSpaceOnUse" color-interpolation-filters="sRGB">
<feFlood flood-opacity="0" result="BackgroundImageFix"/>
<feColorMatrix in="SourceAlpha" type="matrix" values="0 0 0 0 0 0 0 0 0 0 0 0 0 0 0 0 0 0 127 0" result="hardAlpha"/>
<feOffset dy="4"/>
<feGaussianBlur stdDeviation="2"/>
<feComposite in2="hardAlpha" operator="out"/>
<feColorMatrix type="matrix" values="0 0 0 0 0 0 0 0 0 0 0 0 0 0 0 0 0 0 0.25 0"/>
<feBlend mode="normal" in2="BackgroundImageFix" result="effect1_dropShadow_9_298"/>
<feBlend mode="normal" in="SourceGraphic" in2="effect1_dropShadow_9_298" result="shape"/>
<feColorMatrix in="SourceAlpha" type="matrix" values="0 0 0 0 0 0 0 0 0 0 0 0 0 0 0 0 0 0 127 0" result="hardAlpha"/>
<feOffset dy="4"/>
<feGaussianBlur stdDeviation="17.5"/>
<feComposite in2="hardAlpha" operator="arithmetic" k2="-1" k3="1"/>
<feColorMatrix type="matrix" values="0 0 0 0 0.121493 0 0 0 0 0.0553125 0 0 0 0 0.245833 0 0 0 1 0"/>
<feBlend mode="normal" in2="shape" result="effect2_innerShadow_9_298"/>
</filter>
</defs>
</svg>
